<?xml version="1.0" standalone="no"?>
<svg viewBox="0 0 200 200" xmlns="http://www.w3.org/2000/svg">
  <path fill="#08BDBA" d="M38.6,-70.5C49.3,-60.8,56.6,-48.8,63.1,-36.7C69.6,-24.6,75.2,-12.3,78.2,1.7C81.2,15.8,81.6,31.6,73.4,40.6C65.1,49.6,48.2,51.9,34.5,56.2C20.9,60.5,10.4,66.8,-0.2,67.2C-10.9,67.7,-21.9,62.2,-34.8,57.5C-47.8,52.8,-62.7,48.8,-68.6,39.4C-74.4,29.9,-71.2,15,-67.9,1.9C-64.7,-11.2,-61.4,-22.4,-57.5,-35.2C-53.6,-48,-49,-62.5,-39.3,-72.8C-29.6,-83.1,-14.8,-89.4,-0.4,-88.7C14,-88,28,-80.3,38.6,-70.5Z" transform="translate(100 100)" />
</svg>
