<?xml version="1.0" standalone="no"?>
<svg viewBox="0 0 200 200" xmlns="http://www.w3.org/2000/svg">
  <path fill="#08BDBA" d="M31.9,-58.3C42.6,-49.2,53.1,-43,62.5,-33.8C71.8,-24.5,79.8,-12.3,81.7,1.1C83.5,14.4,79.1,28.8,70.5,39.2C61.9,49.7,49,56.2,36.6,60.4C24.1,64.6,12.1,66.6,0.2,66.3C-11.8,66.1,-23.5,63.6,-34.6,58.6C-45.8,53.6,-56.3,46.1,-64.2,35.9C-72.1,25.7,-77.3,12.9,-75.6,1C-73.8,-10.8,-65,-21.6,-59.3,-35.7C-53.7,-49.8,-51.2,-67.1,-41.9,-76.9C-32.5,-86.8,-16.2,-89.2,-2.8,-84.3C10.7,-79.5,21.3,-67.4,31.9,-58.3Z" transform="translate(100 100)" />
</svg>
